<svg width="145" height="201" viewBox="0 0 145 201" fill="none" xmlns="http://www.w3.org/2000/svg">
<path d="M131 23.9H121.7V33.2H131V23.9Z" fill="#FAB50D"/>
<path d="M132.5 0H125.5V7H132.5V0Z" fill="#911E76"/>
<path d="M144.5 10H132.9V21.6H144.5V10Z" fill="#CB2246"/>
<path d="M127.9 38.5H116.3V50H127.9V38.5Z" fill="#911E76"/>
<path d="M104.5 50.1V38.5H116.2V26.9H112.1C107.6 26.9 103.4 28.5 100.1 31.1C95.6999 34.6 92.8999 40 92.8999 46V148.9C92.8999 153.7 94.8999 158.1 97.9999 161.2C101.2 164.4 105.5 166.3 110.3 166.3C114.9 166.3 119.1 164.5 122.3 161.5C125.7 158.3 127.8 153.8 127.8 148.8V61.7H116.2V50H104.5V50.1Z" fill="url(#paint0_linear_213_141)"/>
<path d="M17.4 164.2C13.4 164.2 9.80001 162.9 6.90001 160.7C2.70001 157.5 0 152.5 0 146.8V111.9C0 106.4 2.5 101.5 6.5 98.3C9.5 95.9 13.3 94.4 17.4 94.4C22.2 94.4 26.6 96.4 29.7 99.5C32.9 102.7 34.8 107 34.8 111.8V146.7C34.8 150.2 33.8 153.4 32.1 156.1C29 161 23.6 164.2 17.4 164.2Z" fill="url(#paint1_linear_213_141)"/>
<path d="M62.1998 164.2C58.2998 164.2 54.6998 162.9 51.7998 160.7C47.4998 157.5 44.7998 152.4 44.7998 146.7V65.4C44.7998 60.1 47.1998 55.3 50.8998 52.1C53.8998 49.5 57.8998 47.9 62.1998 47.9C66.1998 47.9 69.7998 49.2 72.6998 51.4C76.8998 54.6 79.5998 59.6 79.5998 65.3V146.6C79.5998 150.6 78.1998 154.3 75.8998 157.3C72.7998 161.5 67.8998 164.2 62.1998 164.2Z" fill="url(#paint2_linear_213_141)"/>
<path d="M24.2997 198.7C24.2997 199.2 24.0997 199.7 23.6997 200.1C23.2997 200.5 22.8997 200.7 22.2997 200.7C21.7997 200.7 21.2997 200.5 20.8997 200.1C20.4997 199.7 20.2997 199.2 20.2997 198.7V188.9C20.2997 186.7 19.4997 184.9 17.9997 183.3C16.4997 181.8 14.5997 181 12.4997 181C10.3997 181 8.49971 181.8 6.99971 183.3C5.49971 184.8 4.69971 186.7 4.69971 188.9V198.7C4.69971 199.2 4.49972 199.7 4.09972 200.1C3.69972 200.5 3.29971 200.7 2.69971 200.7C2.19971 200.7 1.69971 200.5 1.29971 200.1C0.899713 199.7 0.699707 199.2 0.699707 198.7V188.9C0.699707 185.6 1.79972 182.9 4.09972 180.6C6.39972 178.3 9.19972 177.2 12.3997 177.2C15.6997 177.2 18.3997 178.3 20.6997 180.6C22.9997 182.9 24.0997 185.7 24.0997 188.9V198.7H24.2997Z" fill="#878787"/>
<path d="M47.9996 179.1C47.9996 178.6 48.1996 178.1 48.5996 177.7C48.9996 177.3 49.3996 177.1 49.9996 177.1C50.4996 177.1 50.9996 177.3 51.3996 177.7C51.7996 178.1 51.9996 178.6 51.9996 179.1V188.9C51.9996 192.1 50.8996 194.9 48.5996 197.2C46.2996 199.5 43.4996 200.7 40.2996 200.7C37.0996 200.7 34.2996 199.5 31.9996 197.2C29.6996 194.9 28.5996 192.1 28.5996 188.9V179.1C28.5996 178.6 28.7996 178.1 29.1996 177.7C29.5996 177.3 29.9996 177.1 30.5996 177.1C31.0996 177.1 31.5996 177.3 31.9996 177.7C32.3996 178.1 32.5996 178.6 32.5996 179.1V188.9C32.5996 191.1 33.3996 192.9 34.8996 194.4C36.3996 195.9 38.2996 196.7 40.3996 196.7C42.5996 196.7 44.3996 195.9 45.8996 194.4C47.3996 192.9 48.1996 191 48.1996 188.9V179.1H47.9996Z" fill="#878787"/>
<path d="M59.4996 197.2C57.1996 194.9 56.0996 192.1 56.0996 188.9V173.2C56.0996 172.7 56.2996 172.2 56.6996 171.8C57.0996 171.4 57.4996 171.2 58.0996 171.2C58.5996 171.2 59.0996 171.4 59.4996 171.8C59.8996 172.2 60.0996 172.6 60.0996 173.2V180.1C62.2996 178.1 64.9996 177.1 67.9996 177.1C71.2996 177.1 73.9996 178.2 76.2996 180.5C78.5996 182.8 79.6996 185.6 79.6996 188.8C79.6996 192 78.5996 194.8 76.2996 197.1C73.9996 199.4 71.1996 200.6 67.9996 200.6C64.5996 200.7 61.7996 199.5 59.4996 197.2ZM67.7996 196.8C69.9996 196.8 71.7996 196 73.2996 194.5C74.7996 193 75.5996 191.1 75.5996 189C75.5996 186.8 74.7996 185 73.2996 183.4C71.7996 181.9 69.8996 181.1 67.7996 181.1C65.6996 181.1 63.7996 181.9 62.2996 183.4C60.7996 184.9 59.9996 186.8 59.9996 189C59.9996 191.2 60.7996 193 62.2996 194.5C63.7996 196 65.6996 196.8 67.7996 196.8Z" fill="#878787"/>
<path d="M101.1 194.5C101.6 194.6 102.1 194.8 102.4 195.2C102.7 195.6 102.9 196.1 102.9 196.6C102.8 197.1 102.6 197.6 102.2 197.9C101 198.8 99.6998 199.4 98.2998 199.9C96.8998 200.4 95.2998 200.6 93.6998 200.6C90.2998 200.6 87.4998 199.4 85.1998 197.1C82.8998 194.8 81.7998 192 81.7998 188.8C81.7998 185.5 82.8998 182.8 85.1998 180.5C87.4998 178.2 90.2998 177.1 93.4998 177.1C96.7998 177.1 99.4998 178.2 101.8 180.5C104.1 182.8 105.2 185.6 105.2 188.8C105.2 189.3 105 189.8 104.6 190.2C104.2 190.6 103.8 190.8 103.2 190.8H85.7998C86.1998 192.2 86.7998 193.4 87.8998 194.4C89.3998 195.9 91.2998 196.7 93.5998 196.7C94.7998 196.7 95.8998 196.5 96.8998 196.2C97.8998 195.9 98.7998 195.5 99.5998 194.9C100.1 194.6 100.5 194.5 101.1 194.5ZM85.7998 186.9H101C100.6 185.5 99.9998 184.3 98.8998 183.3C97.3998 181.8 95.4998 181 93.3998 181C91.1998 181 89.3998 181.8 87.8998 183.3C86.8998 184.4 86.1998 185.6 85.7998 186.9Z" fill="#878787"/>
<path d="M127.6 181.9C127.6 182.4 127.4 182.9 127.1 183.2C126.7 183.6 126.3 183.8 125.8 183.8C125.3 183.8 124.8 183.6 124.5 183.3C123.7 182.5 122.7 181.9 121.6 181.5C120.4 181.1 119.1 180.9 117.7 180.8C115.7 180.8 114.1 181.2 112.8 181.9C111.7 182.5 111.1 183.2 111.1 184.1C111.1 185.2 111.6 185.9 112.6 186.3C113.6 186.7 115.3 186.9 117.8 187C120.8 187 123 187.3 124.2 187.7C126.8 188.7 128.1 190.6 128.1 193.5C128.1 195.7 127 197.4 124.9 198.8C123 200 120.7 200.6 117.9 200.6C116 200.6 114.3 200.3 112.6 199.7C110.9 199.1 109.4 198.2 108.1 197C107.7 196.7 107.5 196.2 107.5 195.7C107.5 195.2 107.6 194.7 108 194.4C108.3 194 108.8 193.8 109.3 193.8C109.8 193.8 110.3 194 110.6 194.3C111.5 195.1 112.6 195.8 113.8 196.2C115 196.7 116.4 196.9 117.8 196.9C119.9 196.9 121.6 196.5 122.9 195.7C123.8 195.1 124.3 194.5 124.3 193.6C124.3 192.4 123.8 191.7 122.9 191.3C122 191 120.3 190.8 117.8 190.8C114.9 190.8 112.7 190.5 111.2 189.9C108.6 188.9 107.4 187 107.4 184.2C107.4 181.8 108.6 180 111 178.7C112.9 177.7 115.1 177.2 117.7 177.2C119.6 177.2 121.3 177.5 122.9 178.1C124.5 178.7 125.9 179.5 127.1 180.7C127.4 181 127.6 181.4 127.6 181.9Z" fill="#878787"/>
<defs>
<linearGradient id="paint0_linear_213_141" x1="142.327" y1="41.9922" x2="79.3283" y2="151.109" gradientUnits="userSpaceOnUse">
<stop stop-color="#911D76" stop-opacity="0.6"/>
<stop offset="0.9041" stop-color="#911D76"/>
</linearGradient>
<linearGradient id="paint1_linear_213_141" x1="33.6946" y1="101.138" x2="1.16792" y2="157.476" gradientUnits="userSpaceOnUse">
<stop stop-color="#FFD200"/>
<stop offset="0.2687" stop-color="#FCBF00"/>
<stop offset="0.7491" stop-color="#F39200"/>
</linearGradient>
<linearGradient id="paint2_linear_213_141" x1="88.5745" y1="60.4695" x2="35.9221" y2="151.666" gradientUnits="userSpaceOnUse">
<stop stop-color="#D12449" stop-opacity="0.6"/>
<stop offset="0.0377201" stop-color="#D12449" stop-opacity="0.6184"/>
<stop offset="0.818" stop-color="#D12449"/>
</linearGradient>
</defs>
</svg>
